<svg xmlns="http://www.w3.org/2000/svg" width="269.62" height="40.055" viewBox="0 0 269.62 40.055"><defs><style>.a{fill:#2aabe1;}</style></defs><g transform="translate(-35.73 -223.511)"><path class="a" d="M105.719,252.463l-7.037-13.384-7.124,13.384Zm10.415,10.3h-5.008l-3.184-6.181H89.335l-3.184,6.181H81.145l14.613-27.625h5.762Z"></path><path class="a" d="M142.423,248.114q5.3,0,5.3-4.273,0-4.58-5.609-4.579H125.9v8.852Zm.8-12.973a9.377,9.377,0,0,1,6.716,2.346,8.236,8.236,0,0,1,2.48,6.277,7.778,7.778,0,0,1-2.576,6.295q-2.575,2.175-7.5,2.175H125.9v10.532h-4.58V235.141Z"></path><path class="a" d="M178.216,252.463l-7.037-13.384-7.124,13.384Zm10.414,10.3h-5.009l-3.182-6.181H161.832l-3.184,6.181h-5.007l14.614-27.625h5.761Z"></path><path class="a" d="M227.7,248.532a13.664,13.664,0,0,1-4.828,10.886q-4.828,4.15-12.8,4.148a19.567,19.567,0,0,1-12.171-3.7A13.513,13.513,0,0,1,197.978,238q4.923-3.739,12.477-3.739a18.972,18.972,0,0,1,14.956,6.678l-4.272,2.136a15.857,15.857,0,0,0-19.879-2.022,9.68,9.68,0,0,0-.573,15.415q3.548,2.9,9.386,2.9,9.159,0,11.906-7.136H209.12v-4.12H227.7Z"></path><path class="a" d="M264.407,262.766H235.485V235.141h27.854v4.121H240.063v7.1h16.179v4.121H240.063v8.166h24.344Z"></path><path class="a" d="M300.579,248.914a9.311,9.311,0,0,0-4.119-7.859,14.544,14.544,0,0,0-8.816-2.595,14.378,14.378,0,0,0-9.386,2.958,9.71,9.71,0,0,0-.076,15.071q3.547,2.88,9.462,2.881,5.877,0,9.406-2.9a9.318,9.318,0,0,0,3.529-7.556m4.771,0a13.124,13.124,0,0,1-5.572,10.991,21.966,21.966,0,0,1-24.343-.039A13.456,13.456,0,0,1,275.512,238a19.567,19.567,0,0,1,12.132-3.739A19.313,19.313,0,0,1,299.74,238a13.154,13.154,0,0,1,5.61,10.912"></path><path class="a" d="M40.6,243.939v-1.654h2.164v-1.1H40.6V239.53l-4.873,2.2Z"></path><path class="a" d="M40.6,251.37v-1.653h2.164v-1.1H40.6v-1.654l-4.873,2.2Z"></path><path class="a" d="M40.6,258.8V257.15h2.164v-1.1H40.6v-1.653l-4.873,2.2Z"></path><path class="a" d="M65.811,243.939v-1.654H63.647v-1.1h2.164V239.53l4.873,2.2Z"></path><path class="a" d="M65.811,251.37v-1.653H63.647v-1.1h2.164v-1.654l4.873,2.2Z"></path><path class="a" d="M65.811,258.8V257.15H63.647v-1.1h2.164v-1.653l4.873,2.2Z"></path><path class="a" d="M56.815,262.766a1.014,1.014,0,1,1,0-2.028,3.78,3.78,0,0,0,3.776-3.776v-15.9a3.781,3.781,0,0,0-3.776-3.777,1.013,1.013,0,1,1,0-2.027,5.81,5.81,0,0,1,5.8,5.8v15.9a5.81,5.81,0,0,1-5.8,5.8"></path><path class="a" d="M49.6,262.766a5.81,5.81,0,0,1-5.8-5.8v-15.9a5.81,5.81,0,0,1,5.8-5.8,1.013,1.013,0,1,1,0,2.027,3.781,3.781,0,0,0-3.776,3.777v15.9a3.78,3.78,0,0,0,3.776,3.776,1.014,1.014,0,1,1,0,2.028"></path><path class="a" d="M53.207,249.356a1.037,1.037,0,0,1-1.037-1.038V224.549a1.037,1.037,0,1,1,2.074,0v23.769a1.037,1.037,0,0,1-1.037,1.038"></path></g></svg>